<?xml version="1.0" standalone="no"?>
<!DOCTYPE svg PUBLIC "-//W3C//DTD SVG 20010904//EN"
 "http://www.w3.org/TR/2001/REC-SVG-20010904/DTD/svg10.dtd">
<svg version="1.0" xmlns="http://www.w3.org/2000/svg"
 width="1479.000000pt" height="1479.000000pt" viewBox="0 0 1479.000000 1479.000000"
 preserveAspectRatio="xMidYMid meet">
<metadata>
Created by potrace 1.14, written by Peter Selinger 2001-2017
</metadata>
<g transform="translate(0.000000,1479.000000) scale(0.100000,-0.100000)"
fill="#000000" stroke="none">
<path d="M7225 14050 c-5 -13 -7 -13 -15 0 -9 13 -10 13 -10 0 0 -9 -3 -11 -8
-5 -8 11 -42 16 -42 6 0 -4 -9 -7 -20 -7 -11 0 -20 4 -20 9 0 5 -7 4 -15 -3
-8 -7 -26 -10 -40 -8 -14 3 -25 1 -25 -4 0 -5 -5 -6 -10 -3 -6 4 -17 1 -25 -5
-8 -7 -15 -8 -15 -3 0 5 -7 10 -15 10 -8 0 -15 -5 -15 -11 0 -6 -5 -4 -10 4
-7 11 -10 11 -10 2 0 -9 -13 -12 -39 -10 -22 1 -46 -4 -55 -11 -13 -11 -16
-11 -16 0 0 8 -6 5 -15 -7 -9 -12 -14 -14 -15 -5 0 8 -6 11 -17 6 -10 -4 -26
-8 -35 -10 -9 -2 -27 -9 -39 -15 -13 -8 -19 -8 -15 -1 4 6 -9 4 -28 -4 -20 -9
-39 -15 -43 -14 -5 1 -10 0 -13 -1 -6 -2 -26 -7 -59 -14 -14 -3 -28 -11 -33
-18 -6 -11 -8 -11 -8 0 0 9 -5 10 -19 3 -10 -6 -21 -7 -25 -4 -3 3 -6 1 -6 -6
0 -7 -4 -9 -10 -6 -5 3 -10 2 -10 -4 0 -5 -9 -8 -20 -6 -11 2 -20 -1 -20 -7 0
-5 -7 -8 -15 -4 -8 3 -15 1 -15 -4 0 -6 -9 -10 -19 -10 -11 0 -23 -5 -27 -11
-4 -8 -9 -7 -15 2 -7 11 -9 11 -9 1 0 -7 -4 -10 -10 -7 -5 3 -10 1 -10 -5 0
-6 -4 -8 -10 -5 -5 3 -10 1 -10 -5 0 -7 -8 -9 -19 -5 -12 3 -21 0 -25 -11 -4
-9 -13 -14 -21 -10 -8 3 -15 1 -15 -4 0 -4 -13 -11 -30 -15 -16 -4 -30 -11
-30 -16 0 -6 -4 -8 -9 -4 -5 3 -15 0 -23 -7 -7 -7 -20 -15 -28 -17 -46 -13
-80 -27 -80 -33 0 -5 -9 -8 -19 -8 -10 0 -22 -7 -25 -16 -3 -8 -10 -12 -16 -9
-5 3 -10 1 -10 -4 0 -6 -3 -11 -7 -10 -19 3 -52 -14 -46 -24 4 -6 0 -8 -10 -4
-10 4 -20 0 -26 -11 -6 -9 -11 -13 -11 -8 0 5 -7 3 -15 -4 -12 -10 -15 -10
-15 1 0 11 -2 11 -10 -1 -5 -8 -10 -11 -10 -7 0 4 -13 -6 -30 -23 -16 -16 -34
-30 -40 -30 -5 0 -10 -4 -10 -10 0 -5 -7 -10 -15 -10 -8 0 -15 -5 -15 -11 0
-5 -4 -8 -9 -5 -4 3 -16 -3 -26 -14 -10 -11 -22 -17 -26 -14 -5 3 -9 1 -9 -5
0 -5 -25 -25 -55 -44 -30 -19 -52 -37 -49 -40 3 -3 -4 -8 -15 -12 -12 -3 -21
-11 -21 -16 0 -6 -4 -7 -10 -4 -5 3 -10 1 -10 -4 0 -6 -7 -11 -16 -11 -8 0
-13 -4 -10 -9 3 -4 -6 -13 -19 -19 -14 -7 -25 -16 -25 -22 0 -6 -4 -9 -9 -5
-5 3 -12 -4 -16 -14 -4 -13 -11 -18 -22 -14 -9 4 -14 2 -12 -3 3 -5 -10 -23
-28 -41 -18 -17 -33 -29 -33 -26 0 3 -11 -6 -24 -20 -13 -14 -27 -23 -30 -20
-3 4 -6 -1 -6 -10 0 -8 -9 -19 -21 -22 -11 -4 -18 -9 -16 -12 5 -5 -52 -63
-62 -63 -3 0 -19 -20 -36 -45 -16 -24 -33 -41 -37 -39 -4 3 -8 0 -8 -6 0 -6
-12 -23 -27 -38 -38 -39 -84 -92 -79 -92 4 0 -24 -36 -56 -70 -9 -10 -14 -21
-11 -24 4 -3 -1 -6 -11 -6 -9 0 -14 -5 -11 -10 3 -6 -1 -13 -9 -16 -9 -3 -14
-10 -11 -14 3 -5 -6 -17 -20 -28 -13 -11 -21 -23 -17 -26 4 -4 -2 -14 -12 -22
-11 -8 -16 -14 -11 -14 5 0 -1 -9 -13 -20 -12 -12 -22 -25 -22 -30 0 -6 -13
-29 -30 -52 -16 -22 -30 -46 -30 -53 0 -7 -9 -20 -20 -30 -11 -10 -19 -23 -17
-29 2 -5 -5 -19 -14 -31 -10 -11 -19 -24 -19 -30 -1 -5 -9 -18 -17 -27 -13
-15 -13 -18 -2 -18 10 -1 9 -4 -3 -11 -10 -5 -18 -17 -18 -25 0 -9 -5 -12 -11
-8 -7 4 -10 1 -7 -7 3 -8 -3 -26 -14 -41 -11 -16 -16 -32 -13 -38 3 -5 1 -10
-6 -10 -7 0 -9 -3 -6 -6 4 -4 -2 -19 -13 -34 -11 -15 -17 -30 -13 -34 3 -3 1
-6 -6 -6 -8 0 -11 -7 -7 -15 3 -8 1 -15 -5 -15 -6 0 -7 -4 -4 -10 3 -5 1 -10
-4 -10 -6 0 -11 -5 -11 -11 0 -5 4 -8 9 -4 5 3 -1 -15 -14 -39 -13 -24 -21
-47 -18 -50 4 -3 1 -6 -5 -6 -7 0 -12 -5 -12 -11 0 -5 6 -7 13 -4 6 4 5 1 -4
-7 -9 -7 -14 -19 -12 -25 3 -7 0 -13 -7 -13 -6 0 -8 -4 -5 -10 3 -5 2 -10 -2
-10 -5 0 -9 -8 -10 -17 -3 -44 -8 -63 -16 -63 -4 0 -5 -4 -2 -10 3 -5 2 -10
-4 -10 -5 0 -8 -9 -6 -20 2 -11 0 -22 -5 -25 -5 -3 -7 -14 -5 -25 2 -11 0 -20
-5 -20 -4 0 -11 -7 -14 -16 -4 -10 -2 -13 7 -7 6 4 4 -5 -6 -20 -12 -19 -14
-27 -5 -27 10 0 10 -3 -1 -9 -7 -5 -11 -13 -7 -19 3 -6 1 -14 -5 -18 -8 -4 -7
-9 2 -15 11 -6 10 -9 -4 -14 -13 -6 -15 -11 -6 -27 9 -16 8 -19 -2 -13 -9 6
-11 2 -7 -13 4 -12 2 -20 -3 -16 -5 3 -9 0 -9 -5 0 -6 6 -11 13 -11 8 -1 7 -4
-3 -13 -8 -7 -15 -24 -14 -39 1 -16 -3 -28 -9 -28 -5 0 -5 -6 2 -14 8 -10 8
-16 -3 -25 -8 -6 -12 -21 -9 -31 3 -11 2 -28 -2 -37 -10 -24 -13 -73 -4 -73
14 0 3 -36 -16 -52 -11 -10 -15 -17 -9 -18 13 0 26 -50 13 -50 -5 0 -9 -5 -9
-11 0 -5 5 -7 11 -3 7 4 6 -3 -2 -17 -16 -28 -19 -89 -6 -106 6 -9 5 -13 -3
-13 -10 0 -10 -3 0 -15 10 -12 10 -15 0 -15 -10 0 -10 -3 0 -15 10 -12 10 -15
0 -15 -10 0 -10 -3 0 -15 10 -12 10 -15 0 -15 -10 0 -10 -3 0 -15 10 -12 10
-15 0 -15 -10 0 -10 -3 0 -15 10 -12 10 -15 0 -15 -10 0 -10 -3 0 -15 10 -12
10 -15 0 -15 -10 0 -10 -3 0 -15 7 -8 9 -15 5 -15 -4 0 -2 -7 5 -15 10 -12 10
-15 -1 -15 -11 0 -11 -2 1 -10 13 -9 13 -10 0 -10 -13 0 -13 -1 0 -10 11 -7
11 -10 2 -10 -10 0 -10 -5 -2 -20 8 -15 8 -20 -2 -20 -9 0 -9 -3 2 -10 11 -7
11 -10 2 -10 -9 0 -10 -5 -2 -19 13 -26 13 -34 -2 -25 -10 6 -10 4 -2 -7 16
-21 24 -59 12 -59 -6 0 -5 -6 2 -15 7 -8 10 -29 8 -45 -3 -17 -1 -33 4 -36 5
-3 6 -10 3 -15 -4 -5 0 -9 7 -9 9 0 9 -3 -2 -10 -12 -8 -12 -10 -1 -10 8 0 11
-3 8 -6 -3 -4 -2 -15 3 -25 6 -11 7 -20 1 -24 -6 -3 -4 -19 4 -39 8 -18 11
-36 8 -40 -4 -3 -2 -6 4 -6 6 0 9 -11 8 -25 -2 -14 2 -25 8 -25 7 0 5 -5 -3
-10 -11 -7 -11 -10 -2 -10 7 0 11 -4 8 -9 -4 -5 0 -12 6 -14 10 -4 9 -6 -1 -6
-10 -1 -11 -4 -3 -14 6 -7 12 -24 14 -39 2 -14 10 -34 18 -44 9 -11 10 -15 3
-10 -7 4 -13 2 -13 -3 0 -6 5 -11 10 -11 6 0 10 -13 10 -30 0 -16 4 -30 8 -30
5 0 9 -6 10 -12 2 -22 7 -43 14 -54 4 -6 10 -26 13 -44 3 -19 11 -40 16 -47 6
-7 8 -17 4 -23 -3 -5 -1 -10 5 -10 6 0 9 -4 6 -9 -3 -5 1 -14 9 -21 7 -6 12
-17 9 -24 -3 -8 2 -21 11 -30 9 -9 11 -16 5 -16 -7 0 -6 -5 2 -14 7 -8 16 -12
20 -9 4 2 5 -3 2 -11 -3 -8 -2 -21 2 -28 5 -7 9 -19 10 -25 1 -7 9 -20 18 -29
18 -17 21 -28 6 -19 -16 10 1 -28 22 -48 20 -20 24 -32 7 -21 -8 4 -8 0 0 -15
7 -11 9 -21 6 -21 -3 0 0 -6 7 -14 7 -8 16 -12 21 -9 4 2 7 -3 7 -11 0 -9 5
-16 11 -16 5 0 7 -4 4 -10 -3 -5 -1 -10 5 -10 6 0 9 -4 5 -9 -3 -5 -1 -12 5
-16 5 -3 10 -14 10 -23 0 -9 11 -26 24 -37 13 -11 24 -24 26 -30 7 -25 15 -41
32 -59 10 -11 18 -26 18 -33 0 -7 5 -13 11 -13 5 0 7 -4 4 -10 -3 -5 -2 -10 3
-10 5 0 15 -14 22 -30 7 -17 22 -37 34 -45 11 -8 17 -15 13 -15 -5 0 -2 -6 5
-14 20 -21 52 -61 49 -61 -1 0 1 -8 4 -17 4 -10 14 -18 22 -18 8 0 11 -4 8
-10 -3 -5 -1 -10 5 -10 6 0 8 -4 5 -10 -3 -5 0 -10 7 -10 8 0 21 -13 31 -29
10 -16 32 -45 50 -64 78 -82 107 -117 97 -117 -7 0 -6 -5 2 -14 7 -8 16 -12
20 -10 4 2 9 0 13 -6 4 -6 11 -8 16 -5 5 3 6 -1 3 -9 -3 -9 -2 -16 2 -16 16 0
74 -57 66 -64 -4 -4 -2 -6 4 -4 6 2 26 -12 43 -29 17 -18 36 -33 41 -33 6 0
10 -7 10 -15 0 -8 3 -14 8 -13 10 4 53 -28 46 -34 -3 -4 4 -9 15 -13 12 -3 21
-11 21 -16 0 -5 5 -9 11 -9 6 0 17 -7 26 -15 8 -8 19 -13 24 -10 5 4 6 -1 3
-9 -3 -8 2 -17 13 -20 10 -3 30 -17 44 -30 15 -14 30 -22 33 -19 3 4 6 0 6 -7
0 -7 3 -11 6 -7 3 3 23 -12 45 -34 39 -39 57 -50 43 -26 -7 12 36 -21 47 -36
3 -5 8 -7 10 -6 2 2 26 -12 52 -30 43 -29 61 -37 90 -40 4 -1 7 -6 7 -11 0
-19 24 -37 41 -33 9 3 23 -4 31 -16 9 -13 22 -19 36 -16 12 2 22 0 22 -6 0 -5
7 -9 15 -9 13 0 19 -11 17 -31 -1 -3 5 -6 13 -6 8 0 12 4 9 9 -3 4 0 8 5 8 6
0 11 -5 11 -10 0 -6 8 -10 18 -8 10 2 16 -2 14 -10 -1 -8 2 -11 7 -8 5 4 12 2
15 -3 3 -5 15 -7 26 -4 12 3 20 0 20 -6 0 -7 4 -10 9 -7 5 4 11 1 13 -4 2 -6
10 -12 18 -13 8 -2 21 -6 28 -10 6 -5 17 -5 22 -2 6 3 10 1 10 -5 0 -6 4 -9 9
-5 5 3 15 0 23 -7 7 -7 22 -15 33 -16 11 -2 21 -8 23 -12 2 -5 9 -7 17 -4 7 3
16 0 20 -5 3 -6 11 -9 16 -5 6 3 18 -1 28 -10 10 -9 22 -16 27 -15 13 3 61
-18 68 -30 4 -6 13 -8 21 -5 21 8 112 -15 126 -32 6 -7 15 -11 20 -8 5 3 9 0
9 -6 0 -8 6 -8 20 0 12 6 30 8 41 5 11 -4 32 -8 47 -11 47 -7 57 -9 71 -18 10
-7 12 -5 7 5 -5 9 -3 8 6 -2 15 -17 68 -21 68 -4 0 5 6 2 13 -7 9 -11 18 -14
27 -8 9 6 17 4 22 -3 6 -9 8 -9 8 0 0 9 6 7 19 -4 11 -9 18 -20 15 -25 -3 -4
1 -15 9 -22 11 -11 17 -12 26 -3 8 8 11 8 11 -2 0 -11 3 -11 15 -1 10 8 15 9
15 1 0 -7 8 -8 25 -1 17 7 25 6 25 -1 0 -8 5 -7 15 1 10 8 15 9 15 1 0 -7 8
-8 25 -1 17 6 25 6 25 -1 0 -6 4 -8 9 -4 5 3 12 1 16 -5 6 -10 58 -3 87 11 10
6 19 5 23 -1 5 -8 11 -8 20 0 10 8 14 7 18 -2 4 -10 6 -10 6 1 1 11 4 11 16 1
8 -7 15 -8 15 -3 0 5 9 9 20 9 11 0 20 -4 20 -9 0 -5 7 -4 15 3 11 9 15 9 15
1 0 -9 5 -9 20 -1 15 8 20 8 20 -1 0 -8 4 -8 15 1 8 7 15 8 15 3 0 -11 29 -11
48 1 6 4 12 2 12 -3 0 -13 79 -14 100 -1 9 5 19 5 26 -1 8 -7 15 -6 19 2 6 8
10 7 16 -2 7 -12 9 -12 9 0 0 11 3 11 15 1 8 -7 15 -8 15 -3 0 5 7 10 15 10 8
0 15 -5 15 -11 0 -8 2 -8 8 0 10 15 51 24 58 12 3 -5 12 -1 21 9 9 11 12 12 8
3 -4 -8 2 -5 13 8 15 16 22 18 26 10 5 -10 7 -10 12 0 5 10 9 10 20 1 11 -9
14 -9 14 1 0 10 3 10 15 0 12 -10 15 -10 15 0 0 7 7 10 15 6 8 -3 15 -1 15 5
0 6 5 7 10 4 6 -3 10 1 10 10 0 13 4 14 20 5 15 -8 20 -8 20 2 0 11 2 11 8 0
5 -7 16 -10 25 -6 10 3 17 1 17 -6 0 -6 12 -2 30 10 17 12 30 16 30 10 0 -6
10 -2 22 9 11 11 25 18 30 15 5 -3 20 2 33 10 14 9 25 13 25 9 0 -5 13 -8 29
-8 16 -1 27 3 25 7 -3 4 -1 8 4 8 5 0 12 10 16 23 5 17 8 19 15 8 6 -10 10
-10 16 -1 5 9 9 9 15 1 4 -8 15 -4 33 13 14 13 28 19 29 14 3 -7 17 -4 37 7
20 10 30 12 26 4 -5 -7 -4 -10 1 -7 5 3 26 13 46 23 21 9 35 22 31 28 -3 5 -1
7 5 4 20 -13 44 5 39 29 -2 13 0 24 5 24 5 0 7 4 4 8 -3 5 4 16 15 25 10 9 19
13 19 9 0 -4 9 -8 19 -8 11 0 17 4 15 8 -3 4 0 8 5 8 6 0 11 7 11 16 0 8 5 12
10 9 6 -3 10 -2 10 2 0 5 9 9 20 10 11 1 20 -2 20 -7 0 -5 7 -7 15 -4 8 4 12
11 8 18 -4 7 -1 7 9 -1 8 -7 19 -9 23 -5 5 4 5 2 2 -4 -14 -24 32 -22 58 2 14
13 36 24 48 24 13 0 29 9 37 19 7 11 17 18 22 15 5 -3 7 0 6 7 -4 15 44 42 52
29 9 -15 32 6 28 26 -2 12 3 19 12 19 8 0 18 5 22 10 5 6 8 5 8 -4 0 -11 3
-11 15 -1 8 7 15 10 15 6 0 -3 9 3 20 14 11 11 25 20 31 20 6 0 9 7 5 15 -3 9
0 15 8 15 19 0 40 27 27 34 -14 9 -53 -32 -45 -46 4 -7 3 -8 -5 -4 -6 4 -18 3
-25 -3 -10 -8 -17 -7 -26 4 -14 17 -6 49 13 42 15 -5 49 32 40 46 -3 5 -1 7 5
3 6 -3 13 -2 17 4 3 5 17 9 30 8 13 -1 22 -5 20 -9 -3 -3 7 -11 21 -18 15 -6
23 -7 19 -1 -3 5 3 10 14 10 12 0 21 6 21 13 0 8 4 7 10 -3 6 -10 10 -11 10
-2 0 6 6 12 13 12 13 0 15 5 19 50 1 10 4 17 6 15 7 -6 30 19 25 28 -2 4 0 7
6 7 5 0 9 9 8 19 -1 12 -7 18 -18 16 -12 -3 -16 1 -12 11 3 7 9 11 14 8 5 -3
9 2 9 11 0 9 5 13 10 10 6 -3 10 1 10 10 0 9 5 13 10 10 6 -3 10 -1 10 6 0 8
3 9 13 0 8 -6 18 -7 22 -3 5 4 5 1 1 -5 -4 -7 -2 -13 4 -13 6 0 8 -4 5 -10 -3
-5 3 -10 14 -10 11 0 23 5 26 10 3 6 2 10 -4 10 -5 0 -3 14 6 30 8 17 19 27
24 24 6 -3 10 0 8 7 -3 27 1 40 11 34 6 -4 17 10 25 29 15 35 35 49 35 24 0
-6 3 -8 7 -5 3 4 12 2 20 -4 10 -9 13 -6 11 17 -1 16 -7 32 -13 37 -6 5 -4 12
7 21 10 7 15 16 11 19 -3 4 1 7 11 7 26 0 77 30 71 40 -4 6 -1 10 5 10 6 0 10
6 9 13 -4 34 1 41 17 19 21 -30 36 -28 32 6 -2 16 -8 26 -17 24 -8 -2 -11 3
-8 13 4 8 1 15 -6 15 -8 0 -8 3 2 9 11 7 11 9 0 14 -10 4 -9 6 4 6 9 1 17 6
17 12 0 5 4 8 9 5 11 -7 33 18 24 27 -3 4 -1 7 5 7 6 0 9 7 6 15 -9 23 25 31
44 10 11 -11 12 -15 3 -10 -9 5 -12 4 -7 -3 12 -19 27 -14 58 19 24 24 27 33
17 45 -9 11 -8 14 5 14 10 0 14 5 11 10 -3 6 -2 10 4 10 6 0 8 6 5 13 -6 15
42 71 54 63 5 -3 9 1 9 9 0 8 -4 12 -9 9 -5 -3 5 17 22 45 18 28 35 49 40 46
4 -3 11 2 14 11 3 8 10 12 16 9 6 -3 7 1 4 9 -3 9 -1 16 5 16 6 0 8 6 5 14 -3
8 -1 17 5 21 6 3 11 14 11 25 0 10 7 20 15 24 8 3 14 11 13 18 -2 7 2 12 9 11
7 -2 10 4 7 12 -4 9 0 22 7 31 10 13 10 17 -2 25 -8 5 -10 9 -6 9 4 0 3 10 -4
21 -7 13 -7 19 -1 15 6 -4 15 2 21 11 9 16 12 16 21 3 6 -10 10 -11 10 -2 0 6
7 12 16 12 8 0 13 4 10 9 -3 5 1 12 10 15 8 3 12 10 9 16 -3 5 -1 10 5 10 6 0
8 4 5 10 -12 19 -13 99 -1 97 6 -1 10 4 9 11 -2 6 3 12 10 12 8 0 7 4 -3 10
-11 7 -11 10 -2 10 7 0 11 4 7 10 -3 5 3 18 15 30 11 11 15 20 8 20 -7 0 -5 5
4 13 9 6 15 23 13 37 -4 34 -3 34 -22 19 -13 -11 -17 -11 -20 -1 -3 6 -10 9
-16 5 -8 -5 -8 -2 0 9 7 8 10 18 6 21 -3 4 -1 7 6 7 7 0 10 4 6 10 -7 11 31
51 40 42 3 -4 1 7 -5 23 -13 34 -13 36 9 52 14 11 14 12 1 13 -11 0 -10 4 4
12 15 8 21 8 24 0 2 -8 7 -8 17 1 8 8 10 19 4 33 -4 12 -5 25 -2 28 4 3 0 6
-7 6 -7 0 -10 3 -7 7 4 3 2 12 -4 20 -8 9 -8 13 -1 13 6 0 9 9 7 20 -2 11 0
20 6 20 5 0 9 13 9 29 0 17 4 33 10 36 6 4 5 13 -2 24 -7 11 -8 26 -3 37 12
27 13 47 2 62 -6 8 -5 12 3 12 7 0 10 8 7 20 -3 11 0 20 5 20 6 0 4 8 -3 17
-12 14 -12 16 0 8 11 -6 13 -4 8 8 -3 9 -2 19 3 22 11 7 9 45 -3 45 -5 0 -3 8
4 17 12 15 12 16 -1 8 -13 -8 -13 -6 -2 7 14 18 23 120 10 112 -5 -3 -8 0 -8
5 0 6 4 11 9 11 5 0 7 9 4 20 -3 11 -1 20 4 20 6 0 11 29 12 65 1 47 -2 65
-11 65 -8 0 -9 3 -3 8 17 12 22 71 11 113 -5 16 -3 29 3 34 8 4 8 12 1 26 -6
11 -14 18 -18 15 -4 -2 -8 4 -8 14 0 10 3 17 6 15 5 -3 5 66 0 83 -1 4 -2 10
-1 15 0 4 -3 7 -7 7 -11 0 -9 31 2 49 5 8 4 16 -4 21 -7 4 -10 12 -6 18 3 6 0
13 -6 15 -10 4 -10 6 0 6 10 1 10 6 2 21 -6 11 -7 20 -3 20 4 0 1 5 -7 10 -12
8 -12 10 -1 10 9 0 12 8 9 25 -3 13 -1 26 5 28 5 1 2 10 -7 19 -9 9 -16 21
-16 27 0 6 -6 11 -12 11 -9 0 -9 3 -3 8 14 10 9 37 -15 83 -4 8 -4 23 2 32 6
11 5 17 -2 17 -6 0 -8 14 -6 36 3 24 0 37 -10 41 -7 3 -11 9 -8 14 3 5 0 9 -6
9 -6 0 -8 5 -5 10 4 6 1 17 -5 25 -7 8 -10 15 -6 15 3 0 0 16 -8 35 -11 26
-12 35 -3 35 7 0 4 7 -7 15 -10 7 -19 25 -20 39 0 14 -5 26 -9 26 -5 0 -5 5
-2 10 3 6 1 10 -4 10 -6 0 -11 10 -11 23 0 13 -6 29 -12 36 -11 11 -10 13 2 7
13 -7 13 -6 0 6 -8 7 -17 22 -18 33 -2 11 -9 26 -15 34 -9 12 -9 13 0 7 9 -5
11 -2 7 8 -3 9 -10 16 -15 16 -5 0 -9 9 -9 21 0 11 -4 18 -9 15 -12 -8 -8 27
4 36 6 4 1 8 -10 8 -15 0 -17 2 -6 9 9 6 10 11 2 15 -6 4 -9 12 -6 17 4 5 1 9
-5 9 -6 0 -8 6 -4 13 4 6 3 9 -1 4 -5 -4 -17 0 -27 9 -14 13 -15 20 -7 31 9
10 8 13 0 13 -7 0 -10 4 -7 9 3 5 -6 16 -20 26 -14 9 -23 19 -20 22 3 4 -2 15
-11 26 -13 15 -14 18 -3 12 8 -4 5 3 -7 17 -13 13 -23 32 -23 41 0 9 -5 17
-11 17 -5 0 -7 5 -4 10 3 6 -1 10 -10 10 -9 0 -13 5 -10 10 3 6 2 10 -3 10 -5
0 -9 10 -8 23 1 12 -6 29 -16 38 -10 9 -15 19 -11 23 3 3 1 6 -6 6 -7 0 -10 4
-6 9 3 5 -4 12 -15 16 -11 3 -20 12 -20 18 0 7 -11 25 -25 41 -13 16 -27 37
-30 47 -4 11 -10 17 -14 15 -4 -3 -8 4 -8 16 -2 19 -38 58 -55 58 -4 0 -7 3
-7 8 3 19 -2 32 -13 30 -7 -2 -12 2 -13 9 0 7 -6 18 -12 24 -7 7 -13 21 -13
31 0 10 -5 17 -12 16 -7 -2 -20 13 -30 32 -10 19 -24 34 -31 32 -8 -1 -20 9
-27 23 -7 13 -21 27 -31 30 -10 3 -16 12 -13 20 3 7 0 16 -5 20 -6 3 -8 11 -5
17 4 7 2 8 -4 4 -7 -4 -12 -2 -12 4 0 6 -4 8 -10 5 -5 -3 -10 -2 -10 3 0 5
-12 14 -26 20 -14 7 -23 16 -19 21 3 5 -4 12 -15 16 -11 4 -18 11 -15 16 4 5
-2 9 -12 10 -10 0 -13 3 -6 6 17 6 -6 30 -33 35 -24 4 -52 30 -46 42 3 5 -2 7
-11 3 -9 -3 -16 -3 -16 1 3 20 -2 33 -11 27 -5 -3 -10 -1 -10 5 0 6 -4 9 -9 5
-5 -3 -12 4 -16 15 -3 11 -13 20 -21 20 -8 0 -14 8 -14 19 0 24 -25 47 -35 31
-4 -7 -20 1 -43 20 -58 48 -61 50 -72 50 -6 0 -8 5 -4 12 4 6 3 8 -3 5 -10 -6
-29 6 -82 56 -14 12 -21 15 -16 7 8 -15 -33 16 -46 34 -4 5 -15 6 -25 2 -10
-4 -15 -4 -11 0 9 9 -13 35 -24 28 -5 -3 -9 0 -9 6 0 6 -5 8 -12 4 -7 -5 -9
-2 -5 9 6 17 -25 33 -43 22 -5 -3 -10 -1 -10 4 0 6 -3 10 -7 10 -20 -3 -34 2
-28 11 3 6 -1 10 -11 10 -9 0 -24 8 -33 18 -9 9 -25 19 -36 20 -11 2 -22 8
-23 13 -2 5 -7 7 -12 4 -4 -2 -18 4 -30 15 -26 23 -34 25 -24 8 6 -10 5 -10
-8 -1 -8 7 -19 9 -23 5 -5 -4 -5 -2 -2 4 4 7 -2 14 -14 17 -12 3 -18 10 -15
16 4 6 -6 8 -24 6 -16 -2 -30 0 -30 5 0 6 -9 10 -21 10 -13 0 -18 4 -13 13 4
6 4 9 -1 5 -4 -4 -15 -2 -23 5 -13 9 -14 9 -8 0 5 -9 2 -11 -8 -7 -9 3 -16 10
-16 16 0 5 -4 6 -10 3 -5 -3 -10 -1 -10 5 0 7 -7 10 -15 6 -8 -3 -15 0 -15 6
0 6 -3 8 -6 5 -4 -4 -19 0 -33 8 -14 7 -39 17 -56 21 -33 8 -43 10 -65 15 -8
2 -18 8 -22 13 -3 5 -20 10 -36 11 -16 1 -41 8 -54 17 -16 11 -30 13 -40 7
-11 -6 -18 -4 -21 5 -4 9 -14 12 -26 9 -13 -3 -21 -1 -21 7 0 9 -4 9 -17 -1
-14 -12 -16 -12 -8 0 6 11 4 13 -7 8 -9 -3 -27 1 -42 8 -19 10 -24 11 -19 2 4
-7 0 -7 -10 2 -9 7 -17 10 -17 6 0 -4 -7 -2 -15 5 -11 9 -15 9 -15 1 0 -9 -5
-9 -21 -1 -11 7 -23 9 -26 6 -4 -3 -13 0 -21 6 -8 7 -30 11 -49 9 -19 -1 -33
1 -30 6 3 5 -6 10 -19 11 -15 1 -23 -2 -19 -8 9 -14 -16 -8 -33 7 -7 7 -25 10
-41 7 -16 -3 -37 -1 -48 5 -14 7 -23 7 -31 -1 -7 -7 -12 -8 -12 -2 0 5 -9 10
-20 10 -11 0 -20 -3 -20 -7 0 -10 -34 -6 -41 5 -8 10 -97 14 -125 5 -12 -4
-26 -3 -33 4 -8 8 -11 7 -11 -3 0 -13 -2 -13 -10 0 -7 11 -10 11 -10 2 0 -9
-5 -10 -19 -2 -13 7 -22 7 -26 0 -3 -6 -17 -7 -30 -4 -49 12 -95 10 -100 -6z"/>
<path d="M10670 10549 c0 -5 5 -7 10 -4 6 3 10 8 10 11 0 2 -4 4 -10 4 -5 0
-10 -5 -10 -11z"/>
<path d="M10680 10525 c-16 -20 -22 -65 -8 -65 6 0 3 -9 -7 -20 -10 -11 -13
-20 -8 -20 9 0 24 23 22 33 0 1 4 15 10 30 7 18 7 26 1 22 -6 -3 -10 -2 -10 4
0 5 6 11 13 14 6 2 9 7 6 11 -3 4 -12 0 -19 -9z"/>
<path d="M10646 10268 c3 -4 1 -8 -4 -8 -5 0 -9 -7 -9 -15 0 -8 4 -15 9 -15 4
0 8 5 8 11 0 5 5 7 10 4 6 -3 10 2 10 13 0 10 -7 19 -15 19 -8 0 -12 -4 -9 -9z"/>
<path d="M10620 10180 c-8 -5 -10 -10 -4 -10 14 0 13 -32 -1 -42 -6 -5 -6 -8
2 -8 13 0 26 17 29 38 1 6 -2 12 -7 12 -6 0 -7 5 -4 10 8 12 4 12 -15 0z"/>
<path d="M3340 7232 c0 -6 -25 -9 -66 -8 -41 2 -60 0 -52 -6 8 -6 4 -7 -12 -2
-34 10 -62 7 -70 -7 -6 -8 -9 -8 -12 2 -4 12 -7 12 -21 0 -14 -11 -17 -11 -17
0 0 11 -2 11 -10 -1 -8 -13 -10 -13 -10 0 0 11 -3 11 -12 2 -7 -7 -28 -12 -48
-12 -20 0 -41 -5 -48 -12 -7 -7 -12 -8 -12 -2 0 6 -7 11 -15 11 -8 0 -15 -5
-15 -10 0 -5 -7 -7 -15 -3 -8 3 -15 2 -15 -3 0 -4 -14 -5 -31 -3 -24 3 -30 1
-24 -8 6 -9 3 -9 -13 -1 -15 8 -23 8 -27 0 -4 -6 -13 -8 -21 -5 -8 3 -14 1
-14 -5 0 -6 -4 -7 -10 -4 -5 3 -16 3 -22 -2 -15 -9 -20 -10 -54 -12 -15 -1
-23 -5 -18 -12 4 -7 -1 -7 -16 1 -18 10 -21 9 -15 -1 6 -9 2 -11 -13 -7 -12 4
-22 2 -22 -4 0 -5 -6 -8 -12 -5 -7 2 -25 -2 -39 -9 -15 -7 -29 -10 -33 -7 -3
4 -6 0 -6 -8 0 -11 -2 -11 -10 1 -7 12 -10 12 -10 1 0 -7 -6 -11 -15 -7 -8 3
-15 1 -15 -4 0 -6 -3 -9 -7 -9 -5 1 -11 0 -15 -1 -5 -1 -11 -3 -15 -5 -52 -14
-62 -18 -58 -26 3 -4 -3 -6 -15 -4 -11 2 -22 -1 -25 -6 -4 -5 -11 -7 -16 -4
-5 4 -9 1 -9 -6 0 -7 -3 -9 -7 -6 -3 4 -13 1 -21 -6 -13 -9 -14 -9 -8 1 10 17
2 15 -24 -8 -12 -11 -27 -17 -31 -14 -5 3 -9 1 -9 -5 0 -6 -7 -8 -15 -5 -8 4
-15 1 -15 -6 0 -8 -8 -10 -21 -7 -12 3 -22 0 -26 -9 -3 -8 -9 -11 -14 -8 -5 3
-9 1 -9 -4 0 -5 -18 -15 -40 -22 -22 -7 -40 -17 -40 -22 0 -4 -3 -7 -7 -6 -11
3 -137 -63 -141 -73 -2 -5 -8 -7 -13 -3 -5 3 -9 0 -9 -6 0 -6 -4 -8 -10 -5 -5
3 -10 1 -10 -5 0 -6 -4 -8 -10 -5 -5 3 -10 1 -10 -4 0 -6 -7 -11 -15 -11 -8 0
-15 -5 -15 -11 0 -5 -4 -7 -10 -4 -5 3 -10 1 -10 -4 0 -6 -7 -11 -15 -11 -8 0
-15 -5 -15 -11 0 -5 -4 -8 -8 -5 -5 3 -24 -8 -43 -25 -19 -16 -39 -29 -45 -29
-6 0 -23 -11 -38 -25 -14 -13 -26 -21 -26 -17 -1 4 -9 -3 -19 -15 -10 -12 -21
-19 -25 -16 -3 4 -6 1 -6 -6 0 -7 -5 -9 -10 -6 -6 3 -13 -1 -16 -9 -3 -9 -10
-16 -14 -16 -9 0 -43 -27 -101 -81 -21 -20 -41 -34 -44 -31 -3 3 -5 -2 -5 -12
0 -9 -4 -14 -10 -11 -5 3 -10 1 -10 -5 0 -6 -4 -9 -9 -5 -5 3 -12 -4 -16 -14
-3 -11 -14 -22 -23 -26 -10 -3 -57 -45 -105 -94 -47 -48 -89 -86 -92 -83 -3 3
-5 1 -5 -5 0 -5 -12 -23 -28 -39 -15 -16 -40 -47 -56 -69 -17 -22 -40 -50 -53
-62 -13 -13 -22 -23 -19 -23 4 0 -3 -9 -14 -20 -11 -11 -20 -25 -20 -31 0 -5
-4 -8 -9 -5 -11 7 -23 -22 -14 -36 3 -6 1 -8 -4 -5 -12 8 -36 -17 -26 -26 3
-4 -1 -7 -10 -7 -9 0 -24 -18 -36 -45 -11 -25 -25 -45 -32 -45 -6 0 -9 -6 -6
-13 3 -7 -4 -19 -14 -26 -11 -6 -17 -16 -14 -21 3 -6 1 -10 -4 -10 -6 0 -11
-5 -11 -11 0 -7 -8 -18 -18 -26 -11 -10 -12 -12 -2 -8 10 4 9 2 -3 -8 -9 -8
-17 -20 -17 -26 0 -7 -5 -9 -12 -5 -7 4 -10 4 -6 -1 4 -4 0 -22 -9 -39 -10
-17 -16 -34 -15 -38 1 -5 -2 -8 -8 -8 -5 0 -10 -7 -10 -15 0 -8 -5 -15 -11
-15 -5 0 -7 -4 -4 -10 3 -5 1 -10 -4 -10 -6 0 -11 -7 -11 -15 0 -8 -5 -15 -11
-15 -7 0 -9 -9 -6 -21 3 -12 0 -22 -9 -26 -8 -3 -14 -11 -14 -19 0 -8 -4 -14
-10 -14 -5 0 -10 -9 -10 -20 0 -12 -9 -31 -20 -43 -11 -12 -18 -27 -16 -34 3
-7 1 -13 -5 -13 -6 0 -8 -4 -4 -9 3 -5 1 -12 -5 -16 -6 -4 -8 -10 -5 -15 3 -4
-1 -10 -9 -13 -7 -3 -13 -20 -14 -38 0 -17 -7 -36 -14 -40 -7 -5 -8 -9 -3 -9
6 0 4 -4 -2 -8 -7 -5 -14 -20 -15 -35 -1 -15 -5 -27 -8 -27 -3 0 -6 -12 -6
-26 -1 -14 -10 -32 -20 -39 -16 -13 -17 -16 -4 -24 12 -9 12 -11 -3 -17 -9 -3
-14 -10 -11 -15 3 -6 0 -17 -8 -26 -11 -14 -11 -16 1 -9 8 5 6 -3 -5 -20 -14
-21 -15 -26 -4 -19 12 7 13 6 3 -7 -7 -8 -10 -18 -6 -21 3 -4 1 -7 -5 -7 -7 0
-12 -10 -12 -23 0 -13 -6 -29 -12 -36 -11 -11 -10 -12 2 -6 12 7 13 6 3 -7 -7
-8 -10 -18 -6 -21 3 -4 1 -7 -5 -7 -6 0 -9 -6 -6 -14 3 -8 1 -17 -5 -21 -8 -4
-8 -12 -1 -25 7 -14 7 -21 -2 -27 -7 -4 -14 -24 -16 -43 -4 -55 -5 -60 -13
-60 -4 0 -5 -9 -2 -21 4 -12 0 -25 -7 -29 -11 -7 -11 -14 -2 -34 7 -17 8 -26
0 -28 -6 -2 -10 -26 -11 -53 0 -28 -4 -56 -10 -63 -7 -8 -7 -16 -1 -20 11 -8
10 -39 -2 -69 -14 -34 -8 -505 7 -513 8 -6 8 -9 -2 -13 -11 -4 -11 -6 -1 -6
10 -1 10 -6 1 -22 -9 -17 -8 -20 3 -13 11 6 11 5 0 -8 -7 -9 -9 -18 -3 -20 5
-1 11 -28 14 -59 2 -31 8 -62 12 -69 6 -9 4 -11 -4 -5 -8 4 -6 -5 4 -25 9 -17
14 -34 11 -38 -3 -3 -6 1 -6 8 0 7 -3 10 -6 7 -4 -4 -1 -13 6 -22 7 -8 9 -15
5 -15 -4 0 -1 -8 6 -17 12 -15 12 -16 -1 -8 -12 7 -13 6 -3 -7 7 -8 10 -18 6
-21 -3 -4 -1 -7 5 -7 7 0 12 -5 12 -11 0 -5 -4 -8 -8 -5 -5 3 -9 -1 -9 -9 0
-8 4 -15 8 -15 3 0 9 -9 12 -20 3 -11 1 -20 -4 -20 -5 0 -9 -5 -9 -11 0 -5 4
-8 9 -5 4 3 7 -6 5 -19 -1 -18 3 -25 14 -25 14 0 14 -2 3 -9 -9 -6 -9 -10 -2
-12 6 -2 12 -23 14 -46 1 -23 6 -45 10 -49 4 -4 7 -16 7 -26 0 -11 4 -17 9
-14 5 4 8 -2 6 -11 -1 -10 3 -24 9 -32 8 -12 8 -13 -2 -7 -11 7 -11 4 0 -13 7
-12 17 -21 23 -21 5 0 3 -5 -5 -10 -12 -7 -12 -10 -1 -10 7 0 11 -6 7 -15 -3
-8 -1 -15 3 -15 5 0 12 -7 15 -16 3 -8 2 -12 -4 -9 -5 3 -3 -7 5 -22 8 -15 15
-34 15 -40 0 -7 5 -13 12 -13 6 0 8 -3 5 -6 -3 -4 -2 -16 4 -27 8 -14 8 -18 0
-13 -17 11 -13 2 9 -24 11 -12 17 -26 15 -30 -3 -5 -1 -10 4 -12 5 -1 11 -12
13 -23 1 -11 5 -22 8 -25 14 -14 67 -130 57 -124 -7 4 -2 -4 11 -18 12 -13 22
-32 22 -41 0 -10 7 -20 15 -23 8 -4 13 -10 10 -14 -3 -5 1 -15 9 -23 8 -8 12
-17 9 -21 -4 -3 -2 -6 4 -6 6 0 13 -9 16 -20 3 -11 0 -20 -5 -20 -6 0 6 -16
26 -35 21 -19 35 -35 31 -35 -3 0 3 -10 14 -22 11 -11 18 -25 15 -30 -3 -4 0
-8 5 -8 6 0 11 -6 11 -14 0 -8 3 -16 8 -18 10 -4 64 -78 57 -78 -7 0 9 -20 47
-60 15 -15 24 -31 21 -34 -4 -3 -1 -6 6 -6 7 0 10 -4 7 -9 -3 -5 1 -12 10 -15
8 -3 13 -10 9 -15 -3 -5 3 -12 13 -15 10 -3 25 -18 34 -33 9 -16 36 -49 60
-75 61 -66 67 -75 62 -81 -3 -3 4 -8 15 -12 12 -3 19 -11 16 -16 -4 -5 -2 -9
4 -9 5 0 13 -9 16 -21 5 -16 9 -18 21 -8 9 7 14 8 13 3 -3 -20 1 -35 10 -30 5
3 11 -3 14 -14 3 -11 12 -20 21 -20 9 0 16 -7 16 -15 0 -8 6 -15 14 -15 7 0
19 -7 26 -15 7 -8 16 -12 21 -9 5 3 6 -1 4 -8 -3 -8 8 -21 25 -31 16 -10 30
-23 30 -28 0 -6 4 -7 10 -4 5 3 10 -1 10 -10 0 -9 4 -13 10 -10 5 3 10 -1 10
-10 0 -9 4 -13 10 -10 5 3 10 1 10 -5 0 -6 4 -9 9 -6 9 6 26 -22 23 -36 -1 -4
4 -5 12 -2 7 3 27 -8 44 -24 17 -16 34 -27 37 -24 3 3 5 0 5 -6 0 -7 4 -11 9
-9 4 1 18 -9 30 -23 13 -14 20 -18 16 -10 -4 8 2 6 12 -5 10 -12 27 -27 37
-35 18 -13 19 -13 12 0 -4 9 -2 8 7 -2 8 -10 17 -15 20 -11 4 3 7 1 7 -6 0 -7
13 -17 29 -22 16 -6 32 -17 35 -25 3 -8 12 -14 21 -14 9 0 28 -12 42 -27 15
-16 23 -21 18 -13 -4 8 1 6 13 -5 41 -39 52 -46 52 -35 0 7 14 -2 31 -20 22
-22 37 -29 51 -24 12 3 24 1 28 -5 4 -7 17 -13 28 -14 12 -1 22 -4 22 -8 0 -7
49 -27 61 -25 4 1 16 -10 28 -24 11 -14 20 -19 21 -12 0 10 12 7 43 -9 23 -12
50 -25 60 -30 11 -6 17 -5 17 3 0 6 6 3 14 -8 8 -10 18 -16 21 -12 4 4 14 0
23 -8 11 -11 17 -12 22 -4 5 8 9 6 14 -6 3 -9 9 -14 13 -10 3 3 16 0 27 -7 12
-8 31 -13 44 -12 12 1 22 -2 22 -7 0 -5 10 -6 21 -3 15 5 19 4 15 -4 -4 -7 1
-11 13 -11 19 0 26 -10 22 -32 -2 -11 37 -10 44 1 3 5 15 8 28 7 30 -4 107
-39 107 -49 0 -4 11 0 25 9 18 12 25 13 23 4 -2 -7 7 -14 20 -16 17 -3 21 0
16 8 -6 10 -5 10 8 1 8 -7 18 -10 21 -6 4 3 9 -2 13 -11 6 -15 7 -15 21 1 8
10 12 12 8 6 -3 -7 -1 -14 4 -14 6 -1 17 -2 24 -3 6 -1 18 2 25 7 8 6 12 5 12
-3 0 -7 7 -10 15 -6 8 3 15 0 15 -7 0 -8 4 -6 10 3 6 10 10 11 10 3 0 -7 5
-13 11 -13 5 0 7 5 3 11 -3 6 6 3 22 -7 21 -14 26 -15 19 -4 -8 13 -7 13 8 1
12 -9 17 -10 17 -2 0 7 5 9 12 5 19 -12 88 -22 88 -13 0 5 5 9 11 9 5 0 8 -3
5 -8 -2 -4 11 -7 30 -6 19 1 34 -3 34 -8 0 -6 6 -5 15 2 10 8 15 9 15 1 0 -7
8 -8 25 -1 17 7 25 6 25 -1 0 -8 5 -7 15 1 10 8 15 9 15 1 0 -7 8 -8 25 -1 17
7 25 6 25 -1 0 -8 5 -7 15 1 10 8 15 9 15 1 0 -7 8 -8 25 -1 17 7 25 6 25 -1
0 -8 5 -7 15 1 10 8 15 9 15 1 0 -7 8 -8 25 -1 17 7 25 6 25 -1 0 -8 5 -7 15
1 9 8 15 8 15 2 0 -7 10 -8 31 -2 18 5 35 7 40 5 4 -3 10 1 12 7 3 8 6 9 6 2
1 -6 12 -9 26 -6 15 2 25 0 25 -7 0 -6 7 -11 15 -11 8 0 15 -5 15 -11 0 -8 5
-8 15 1 8 7 15 8 15 3 0 -5 9 -10 20 -11 11 -1 29 -3 40 -4 11 -1 20 -7 20
-12 0 -5 7 -1 15 10 8 10 15 15 15 10 0 -5 7 -3 15 4 11 9 15 9 15 1 0 -7 5
-9 13 -4 17 11 37 13 37 3 0 -11 33 -7 42 4 4 6 12 5 21 -2 7 -7 17 -9 21 -5
3 4 17 8 29 10 12 2 24 8 25 13 2 6 8 7 14 4 5 -3 23 6 39 22 16 15 29 22 29
15 0 -7 6 -11 14 -8 7 3 19 0 25 -6 8 -8 11 -8 11 2 0 7 5 9 10 6 6 -3 10 0
10 7 0 10 2 10 9 -1 6 -9 11 -10 15 -2 4 6 12 8 18 5 6 -4 8 -2 4 4 -3 6 3 17
15 26 19 13 24 13 36 1 17 -17 56 -3 91 33 12 13 22 20 22 16 0 -3 6 -2 13 3
14 11 68 10 85 -1 7 -4 12 -1 12 9 0 8 7 18 15 21 8 4 13 10 10 14 -3 4 2 10
10 14 8 3 15 1 15 -5 0 -6 5 -7 12 -2 19 12 68 11 68 -1 0 -6 5 -4 10 4 7 11
10 12 10 2 0 -10 3 -10 15 2 16 15 21 31 7 22 -11 -6 -72 21 -72 33 0 5 6 13
12 17 16 10 48 13 48 4 0 -4 12 -5 26 -2 19 3 25 1 20 -6 -5 -8 -1 -10 9 -6
12 5 13 10 4 20 -15 19 -4 44 20 44 11 0 22 4 26 10 3 5 14 2 25 -7 10 -9 16
-21 13 -26 -3 -6 -1 -7 5 -3 7 4 12 2 12 -3 0 -6 8 -3 19 8 10 10 29 18 42 17
13 -1 29 5 36 14 7 8 13 10 13 5 0 -12 39 -15 41 -3 1 4 2 16 2 26 1 9 10 22
21 28 12 7 15 13 7 18 -6 4 -11 18 -11 31 0 19 4 23 17 18 12 -5 14 -3 8 7 -6
10 -4 12 7 7 9 -3 24 4 35 16 28 31 67 62 74 60 4 -1 15 7 24 17 10 11 24 20
32 20 7 0 13 5 13 10 0 16 26 12 41 -7 12 -14 12 -16 0 -8 -11 6 -13 4 -8 -8
4 -10 1 -17 -5 -17 -6 0 -8 -3 -5 -7 4 -3 1 -13 -6 -21 -9 -13 -9 -14 1 -8 7
4 12 2 12 -6 0 -24 40 27 42 55 1 15 7 27 12 27 5 0 -1 9 -14 20 -13 11 -18
20 -12 20 6 0 26 15 45 34 27 27 37 31 49 22 12 -9 13 -14 3 -23 -8 -7 -11
-22 -8 -33 3 -11 8 -18 11 -15 3 2 11 0 19 -6 10 -9 13 -8 13 5 0 9 5 16 10
16 6 0 9 13 8 30 -1 16 -6 30 -10 30 -4 0 -8 7 -8 15 0 8 -4 15 -10 15 -5 0
-2 8 8 18 10 11 20 14 24 8 4 -6 12 -5 22 3 11 9 16 10 16 2 0 -7 10 -9 28 -5
15 3 33 6 40 6 6 1 12 5 12 9 0 4 14 12 30 18 20 6 30 17 30 30 0 11 5 23 10
26 6 4 7 11 4 17 -4 6 -3 8 3 5 10 -6 43 26 43 43 0 6 8 10 17 10 9 0 13 3 10
7 -4 3 -2 12 4 20 9 10 15 10 25 2 11 -9 14 -8 14 2 0 11 2 11 8 1 7 -9 13 -7
28 9 12 14 13 19 4 14 -13 -8 -13 -7 -1 8 9 11 9 17 2 17 -6 0 -3 9 7 21 42
50 60 67 66 61 8 -8 2 30 -7 45 -4 7 4 20 19 32 15 12 23 21 18 21 -4 0 6 11
24 23 17 13 29 27 25 30 -3 4 0 8 8 8 8 1 19 2 24 4 6 1 16 3 23 3 6 1 12 9
12 17 0 8 6 12 13 9 7 -2 20 3 29 13 51 55 57 63 46 63 -9 0 -8 4 2 10 8 5 11
10 5 10 -5 0 -3 5 5 10 11 7 11 10 2 10 -7 0 -10 5 -7 10 3 6 -1 13 -9 16 -13
5 -13 8 -1 20 17 17 45 18 45 2 0 -24 20 8 22 35 1 15 6 27 11 27 4 0 5 5 2
10 -3 6 2 10 12 11 10 0 13 3 6 6 -10 3 -10 9 0 26 14 26 28 37 38 31 4 -2 10
3 13 12 3 9 11 12 18 8 10 -6 10 -4 0 8 -7 9 -9 18 -5 20 15 6 63 88 63 107 0
11 5 23 10 26 6 4 8 11 5 16 -4 5 -1 9 6 9 8 0 8 4 -1 15 -7 8 -9 15 -4 15 5
0 -4 9 -21 20 -16 11 -24 20 -17 20 7 0 11 4 7 9 -3 6 3 14 12 20 10 6 15 11
10 11 -4 0 0 15 9 33 10 17 19 26 21 19 3 -6 9 -10 14 -6 8 5 12 -10 12 -41 0
-6 6 -16 13 -23 11 -10 14 -10 14 3 0 10 5 14 13 10 6 -4 4 0 -6 8 -14 11 -15
16 -5 20 9 4 9 6 1 6 -8 1 -5 13 8 36 15 25 17 35 8 35 -9 0 -10 3 -2 11 8 8
7 16 -5 30 -19 22 -22 41 -8 51 9 6 13 19 21 66 4 26 15 43 15 24 0 -7 7 -12
15 -12 11 0 12 -5 5 -26 -12 -32 -12 -34 0 -34 6 0 10 8 10 19 0 10 6 31 14
46 17 33 11 55 -14 55 -11 0 -22 4 -25 10 -3 6 0 10 7 10 9 0 9 3 -2 10 -11 7
-11 10 -2 10 7 0 10 5 7 10 -3 6 0 13 9 16 8 3 13 14 11 25 -2 11 0 17 6 13 6
-3 9 4 8 18 -4 43 1 79 10 74 5 -4 7 4 3 16 -3 14 -1 19 6 14 13 -8 27 36 19
58 -9 24 16 25 41 2 19 -17 22 -17 16 -3 -4 10 -1 17 6 17 10 0 10 3 0 15 -7
8 -8 15 -3 15 5 0 10 7 10 15 0 10 -6 14 -15 10 -22 -8 -55 25 -41 42 6 7 8
13 4 13 -4 0 -3 6 3 12 6 7 10 15 10 18 -1 3 2 16 7 29 5 16 3 26 -6 32 -8 5
-9 9 -3 9 6 0 11 15 10 33 -1 17 5 38 12 46 9 9 10 17 2 26 -8 10 -8 15 1 20
8 6 7 10 -2 16 -8 5 -9 9 -4 9 6 0 12 16 13 37 2 20 6 41 9 46 3 6 1 7 -5 3
-7 -4 -12 -2 -12 3 0 6 4 11 10 11 5 0 7 6 4 14 -3 8 0 17 5 21 6 3 9 11 6 16
-4 5 0 9 7 9 8 1 7 5 -5 14 -13 10 -15 16 -7 21 9 6 9 10 -1 16 -9 6 -10 9 -2
9 8 0 9 9 3 29 -6 21 -5 31 3 35 8 3 9 7 2 13 -13 10 -16 43 -4 43 6 0 6 8 0
19 -6 10 -7 21 -4 25 11 11 12 36 1 36 -6 0 -5 6 2 15 7 9 10 18 6 22 -3 3 -6
0 -6 -7 0 -7 -3 -10 -6 -7 -4 4 -1 13 6 22 9 11 9 15 1 15 -9 0 -9 5 -1 20 8
15 8 20 -2 20 -8 0 -9 3 -3 8 14 10 19 72 6 72 -6 0 -10 23 -9 57 1 37 -3 58
-11 61 -9 3 -9 7 0 18 9 11 8 14 -2 14 -11 0 -11 2 1 10 13 9 13 11 0 20 -8 5
-11 10 -6 10 5 0 3 7 -4 15 -7 8 -8 15 -3 15 6 0 9 11 8 25 -2 14 2 25 7 25 6
0 1 9 -12 20 -13 11 -20 20 -15 20 4 0 2 7 -5 15 -10 12 -10 15 1 15 11 0 11
2 -1 10 -12 8 -12 10 -1 10 11 0 10 5 -3 24 -9 14 -12 27 -7 31 6 3 4 16 -4
31 -7 15 -11 33 -8 40 3 8 1 14 -4 14 -5 0 -10 11 -11 25 -4 52 -6 60 -19 73
-9 10 -10 19 -3 33 8 13 7 25 -2 42 -7 12 -11 25 -10 30 1 4 -3 7 -9 7 -5 0
-7 5 -4 10 3 6 0 13 -8 16 -9 3 -12 14 -9 30 2 13 0 24 -5 24 -5 0 -9 10 -10
22 -1 11 -6 24 -10 27 -13 9 -14 61 -1 61 6 0 1 9 -12 20 -12 11 -28 17 -34
13 -6 -4 -5 1 3 10 9 12 10 17 2 17 -7 0 -9 5 -6 10 4 6 2 17 -4 24 -7 8 -10
20 -9 27 2 8 -4 14 -12 13 -9 -1 -17 6 -17 15 -8 70 -22 121 -34 121 -5 0 -9
6 -9 13 0 7 -9 19 -19 27 -11 7 -18 17 -15 22 3 4 0 8 -6 8 -6 0 -8 5 -5 10 3
6 1 10 -6 10 -7 0 -9 3 -6 7 4 3 -1 12 -11 19 -9 7 -12 14 -5 14 6 0 11 9 10
19 0 11 -5 17 -9 15 -4 -3 -8 0 -8 6 0 6 -4 8 -10 5 -6 -3 -10 1 -10 9 0 9 -5
16 -11 16 -5 0 -8 4 -4 9 3 5 1 12 -5 16 -6 4 -8 10 -6 14 3 4 -4 14 -15 21
-11 8 -19 26 -19 42 0 22 -5 28 -21 28 -16 0 -20 5 -16 20 3 11 1 20 -4 20 -4
0 -5 7 -2 17 4 11 3 14 -5 9 -7 -4 -12 -2 -12 3 0 6 -6 11 -14 11 -8 0 -17 9
-21 19 -3 11 -18 33 -33 50 -15 16 -28 35 -30 43 -2 7 -8 16 -14 19 -5 3 -10
10 -11 15 -1 5 -5 8 -9 6 -5 -1 -8 4 -8 11 0 7 -9 19 -20 27 -11 8 -20 20 -20
26 0 7 -13 23 -29 37 -17 14 -27 27 -24 31 3 3 -2 8 -11 12 -9 3 -16 12 -16
19 0 8 -8 16 -18 20 -11 3 -24 17 -30 30 -6 14 -16 25 -22 25 -5 0 -10 7 -10
15 0 8 -4 15 -9 15 -11 0 -111 101 -111 112 0 5 -6 8 -12 8 -7 0 -24 16 -37
35 -13 19 -27 32 -32 29 -5 -3 -9 0 -9 5 0 6 -7 11 -15 11 -8 0 -15 7 -15 16
0 9 -5 14 -11 12 -7 -2 -35 19 -63 47 -28 27 -52 49 -53 48 -8 -8 -23 -2 -18
7 3 6 -1 10 -9 10 -8 0 -20 8 -25 18 -6 9 -11 13 -11 8 0 -5 -11 3 -24 17 -13
14 -27 23 -30 20 -3 -4 -6 -1 -6 5 0 7 -7 12 -15 12 -8 0 -15 5 -15 10 0 6 -7
10 -15 10 -7 0 -18 6 -22 14 -4 8 -14 16 -22 18 -8 2 -28 16 -45 33 -16 16
-35 30 -40 30 -18 0 -76 29 -76 38 0 5 -4 6 -9 2 -5 -3 -22 10 -36 30 -20 26
-31 33 -44 26 -18 -9 -65 11 -53 24 4 5 3 6 -3 3 -13 -7 -77 27 -68 36 4 4 0
4 -9 1 -9 -4 -19 -1 -23 4 -3 6 -11 9 -16 6 -5 -4 -9 -1 -9 5 0 7 -7 10 -15 6
-8 -3 -15 -1 -15 4 0 5 -11 12 -25 16 -14 3 -25 10 -25 15 0 5 -6 6 -14 3 -7
-3 -21 2 -30 11 -9 9 -16 13 -16 9 0 -3 -7 -1 -15 6 -12 10 -15 10 -15 -1 -1
-10 -4 -9 -14 4 -7 9 -23 17 -35 17 -11 0 -21 5 -21 11 0 6 -7 9 -15 5 -8 -3
-15 -1 -15 4 0 5 -9 7 -20 5 -11 -2 -20 0 -20 6 0 5 -9 9 -21 9 -11 0 -18 3
-16 8 3 4 -9 8 -26 9 -17 1 -34 8 -39 15 -6 10 -8 10 -8 -2 0 -11 -2 -12 -8
-3 -4 7 -22 13 -40 15 -18 1 -32 5 -32 9 0 4 -7 10 -16 13 -9 4 -13 2 -8 -5 4
-8 0 -7 -15 0 -11 7 -21 8 -21 4 0 -4 -4 -3 -8 4 -4 7 -24 13 -45 15 -20 1
-37 7 -37 13 0 5 -5 3 -10 -5 -7 -12 -10 -12 -10 -1 0 7 -6 11 -14 8 -7 -3
-19 0 -25 6 -6 6 -11 7 -11 3 0 -5 -8 -2 -17 5 -15 12 -16 12 -8 -1 8 -13 7
-13 -9 0 -22 18 -60 25 -50 9 4 -8 0 -8 -15 0 -11 7 -21 8 -21 4 0 -4 -4 -2
-9 6 -8 12 -12 12 -25 2 -12 -10 -16 -10 -16 -2 0 7 -4 9 -10 6 -5 -3 -10 0
-10 7 0 10 -2 10 -9 -1 -5 -8 -11 -9 -15 -3 -3 5 -17 7 -31 4 -15 -2 -25 0
-25 7 0 9 -5 9 -20 1 -14 -8 -20 -8 -20 0 0 8 -6 8 -20 0 -14 -8 -20 -8 -20 0
0 7 -6 10 -12 7 -7 -2 -22 -1 -34 3 -11 5 -39 5 -62 0 -23 -4 -39 -3 -36 1 3
5 0 9 -5 9 -6 0 -11 -5 -11 -10 0 -7 -6 -7 -20 0 -11 6 -20 8 -20 4 0 -3 -7
-1 -15 6 -12 10 -15 10 -15 -1 0 -9 -3 -10 -8 -4 -9 13 -42 15 -42 3 0 -6 -6
-5 -15 2 -12 10 -15 10 -15 -1 0 -12 -2 -12 -9 0 -6 9 -10 10 -16 2 -5 -9 -10
-9 -21 0 -9 7 -14 8 -14 1z"/>
<path d="M11290 7231 c-20 -12 -82 -17 -98 -7 -7 4 -12 2 -12 -6 0 -9 -3 -9
-10 2 -9 13 -10 13 -10 0 0 -13 -1 -13 -10 0 -9 13 -10 13 -10 0 0 -13 -1 -13
-10 0 -5 8 -10 10 -10 4 0 -7 -11 -14 -25 -16 -14 -3 -25 -1 -25 5 0 5 -8 3
-17 -4 -9 -8 -14 -9 -10 -3 3 6 0 11 -8 11 -8 0 -12 -4 -9 -9 3 -5 -6 -7 -20
-4 -16 3 -26 0 -26 -7 0 -7 -4 -6 -10 3 -9 13 -10 13 -10 0 0 -13 -1 -13 -10
0 -7 11 -10 11 -10 2 0 -7 -5 -10 -10 -7 -6 4 -17 1 -25 -5 -11 -9 -15 -9 -15
-1 0 6 -7 11 -15 11 -8 0 -15 -4 -15 -10 0 -5 -16 -10 -36 -10 -21 0 -33 -4
-29 -10 4 -7 -3 -7 -19 0 -14 5 -26 6 -26 1 0 -5 -7 -12 -16 -15 -9 -4 -13 -2
-8 5 4 8 0 7 -15 0 -12 -7 -26 -9 -31 -6 -6 3 -10 1 -10 -5 0 -6 -4 -9 -9 -5
-5 3 -13 0 -17 -6 -4 -8 -9 -7 -15 2 -6 10 -9 10 -9 2 0 -7 -6 -10 -14 -7 -8
3 -17 0 -21 -5 -3 -6 -11 -9 -16 -6 -5 4 -9 2 -9 -3 0 -6 -9 -8 -20 -5 -11 3
-20 1 -20 -4 0 -5 -14 -10 -32 -11 -18 -2 -36 -8 -40 -15 -4 -7 -8 -8 -8 -3 0
5 -8 2 -17 -5 -11 -10 -14 -10 -9 -1 4 6 2 12 -3 12 -6 0 -11 -5 -11 -11 0 -5
-4 -7 -10 -4 -5 3 -10 1 -10 -5 0 -6 -5 -8 -11 -5 -6 4 -17 -1 -24 -11 -10
-13 -14 -15 -15 -5 0 11 -3 11 -15 1 -8 -7 -15 -9 -15 -5 0 4 -7 2 -15 -5 -8
-7 -15 -9 -15 -5 0 5 -10 0 -22 -11 -12 -10 -18 -13 -14 -7 5 9 2 11 -8 7 -9
-3 -16 -10 -16 -14 0 -7 -57 -24 -72 -21 -5 0 -8 -4 -8 -10 0 -5 -4 -8 -9 -5
-5 4 -11 1 -13 -4 -2 -6 -13 -12 -26 -13 -12 0 -22 -5 -22 -10 0 -4 -5 -5 -10
-2 -6 3 -13 0 -16 -9 -3 -8 -12 -12 -20 -9 -7 3 -21 -2 -30 -11 -8 -9 -20 -14
-25 -11 -5 4 -9 1 -9 -5 0 -6 -4 -8 -10 -5 -5 3 -10 2 -10 -3 0 -6 -21 -20
-47 -33 -49 -23 -55 -26 -74 -28 -5 0 -8 -5 -5 -10 4 -5 -7 -12 -24 -16 -16
-4 -30 -11 -30 -16 0 -5 -5 -9 -11 -9 -6 0 -23 -9 -39 -20 -15 -11 -30 -17
-34 -13 -3 3 -6 1 -6 -5 0 -6 -16 -19 -35 -28 -19 -9 -35 -21 -35 -27 0 -6 -3
-8 -6 -4 -3 3 -11 1 -18 -4 -64 -54 -71 -58 -78 -46 -6 9 -8 8 -9 -3 -1 -8 -1
-19 0 -23 1 -5 -3 -6 -8 -2 -6 3 -15 -4 -21 -15 -6 -11 -15 -18 -19 -16 -4 3
-23 -9 -42 -27 -19 -17 -36 -32 -39 -32 -10 0 -54 -35 -45 -35 5 0 0 -6 -10
-14 -11 -8 -24 -12 -30 -9 -5 4 -7 3 -3 -2 8 -8 -31 -42 -44 -38 -4 2 -10 -6
-13 -17 -4 -11 -11 -18 -16 -15 -5 4 -9 -1 -9 -9 0 -9 -4 -16 -9 -16 -9 0 -80
-67 -76 -72 1 -2 -7 -12 -18 -23 -12 -12 -17 -14 -13 -5 4 8 1 7 -6 -4 -7 -10
-28 -32 -45 -49 -18 -17 -33 -37 -33 -45 0 -9 -3 -13 -6 -9 -6 6 -34 -16 -34
-27 0 -3 -13 -19 -30 -36 -16 -17 -30 -35 -30 -41 0 -6 -4 -7 -10 -4 -9 6 -14
-8 -7 -20 1 -2 -8 -12 -21 -20 -12 -9 -19 -22 -16 -28 4 -7 4 -9 -1 -5 -9 9
-47 -31 -40 -42 3 -4 -1 -10 -8 -13 -6 -2 -30 -31 -52 -63 -22 -33 -43 -60
-47 -62 -5 -2 -8 -8 -8 -14 0 -5 -9 -23 -21 -39 -11 -16 -18 -29 -15 -29 3 0
-3 -9 -14 -20 -12 -12 -18 -26 -14 -32 4 -6 3 -9 -2 -6 -5 3 -17 -3 -26 -14
-12 -12 -14 -18 -5 -18 7 0 5 -5 -5 -11 -11 -6 -15 -16 -11 -26 4 -11 3 -14
-5 -9 -11 6 -17 -5 -13 -26 0 -5 -3 -8 -9 -8 -6 0 -9 -3 -8 -7 3 -13 -25 -63
-34 -63 -5 0 -6 -4 -3 -10 3 -5 1 -10 -5 -10 -6 0 -9 -4 -6 -9 3 -5 -1 -14 -9
-21 -7 -6 -12 -17 -9 -23 2 -7 -9 -26 -26 -44 -20 -21 -25 -33 -17 -36 9 -4 9
-6 -1 -6 -7 -1 -10 -6 -7 -11 4 -6 -1 -22 -9 -35 -9 -14 -14 -25 -10 -25 4 0
1 -7 -6 -15 -6 -8 -9 -19 -5 -25 3 -5 1 -10 -6 -10 -7 0 -9 -3 -6 -7 4 -3 0
-14 -8 -23 -8 -9 -16 -29 -17 -43 -1 -15 -6 -27 -11 -27 -4 0 -5 -4 -2 -10 3
-5 1 -10 -5 -10 -6 0 -8 -4 -5 -10 3 -5 0 -10 -7 -10 -9 0 -9 -3 2 -10 11 -7
11 -10 2 -10 -7 0 -10 -4 -7 -10 3 -5 2 -10 -4 -10 -6 0 -8 -7 -5 -15 4 -8 2
-15 -3 -15 -5 0 -10 -10 -10 -22 -1 -13 -7 -24 -13 -26 -5 -2 -8 -7 -5 -12 3
-5 -2 -16 -11 -24 -8 -9 -11 -16 -5 -16 7 0 7 -8 1 -25 -5 -14 -7 -25 -4 -25
4 0 1 -7 -6 -15 -10 -12 -10 -15 1 -15 10 -1 10 -4 -3 -13 -12 -10 -14 -17 -6
-31 7 -12 7 -17 0 -12 -5 3 -12 -3 -15 -14 -3 -12 -1 -17 5 -14 6 4 6 -1 -1
-12 -21 -41 -26 -64 -30 -142 -1 -13 -5 -20 -11 -17 -13 8 -8 -18 5 -27 6 -5
5 -8 -3 -8 -7 0 -10 -4 -7 -10 3 -5 2 -10 -4 -10 -10 0 -8 -31 3 -49 3 -5 -1
-14 -9 -21 -10 -8 -12 -18 -6 -28 5 -9 3 -28 -5 -47 -9 -22 -11 -42 -5 -63 7
-23 5 -34 -8 -47 -12 -14 -13 -16 -1 -9 13 7 13 6 1 -9 -9 -12 -10 -17 -2 -17
9 0 9 -5 1 -20 -7 -14 -7 -20 0 -20 5 0 10 -5 10 -11 0 -5 -4 -8 -8 -5 -5 3
-9 -1 -9 -9 0 -8 4 -15 9 -15 5 0 4 -9 -2 -19 -7 -14 -6 -21 3 -25 9 -5 9 -7
0 -12 -9 -4 -10 -11 -3 -23 5 -10 6 -21 3 -25 -10 -9 -13 -36 -4 -36 4 0 7 -9
7 -20 0 -11 -4 -20 -8 -20 -5 0 -4 -8 1 -19 6 -10 7 -21 4 -25 -10 -9 -13 -36
-4 -36 4 0 7 -9 7 -20 0 -11 -4 -20 -7 -20 -4 0 -4 -13 1 -30 6 -21 5 -30 -3
-30 -8 0 -8 -3 1 -12 7 -7 12 -34 12 -60 0 -29 4 -48 11 -48 8 0 8 -5 -1 -15
-9 -11 -9 -15 -1 -15 9 0 9 -5 1 -20 -7 -13 -7 -20 -1 -20 6 0 7 -7 4 -17 -4
-9 -2 -14 3 -10 6 4 9 -6 6 -24 -2 -16 1 -36 8 -44 9 -10 9 -15 1 -15 -6 0
-11 -9 -11 -20 0 -11 5 -20 11 -20 5 0 7 -4 4 -10 -3 -6 -2 -10 3 -10 5 0 8
-13 6 -30 -2 -16 0 -30 5 -30 5 0 9 -11 10 -25 3 -49 4 -55 15 -55 6 0 4 -5
-4 -10 -10 -7 -11 -10 -2 -10 8 0 11 -12 10 -32 -1 -17 3 -33 9 -35 7 -3 9
-11 6 -20 -4 -9 -2 -14 3 -10 5 3 9 -6 8 -20 -1 -29 17 -73 29 -73 5 0 5 -5 2
-10 -4 -6 -1 -18 7 -27 11 -14 11 -16 -2 -8 -12 7 -13 6 -4 -6 6 -8 10 -25 9
-38 -1 -13 7 -33 17 -43 10 -10 16 -23 13 -28 -4 -6 -2 -10 4 -10 6 0 8 -7 5
-15 -4 -8 -1 -15 5 -15 6 0 11 -11 11 -25 0 -14 5 -25 11 -25 5 0 7 -4 4 -10
-3 -5 0 -10 7 -10 11 0 10 -2 0 -9 -11 -6 -10 -10 3 -15 10 -3 15 -12 11 -21
-3 -8 -1 -15 4 -15 5 0 7 -6 4 -14 -3 -7 2 -16 11 -20 10 -3 15 -12 11 -21 -3
-8 -1 -15 4 -15 6 0 10 -7 10 -16 0 -9 9 -28 20 -44 11 -15 17 -30 13 -34 -3
-3 -1 -6 6 -6 7 0 9 -4 6 -10 -3 -5 -1 -10 4 -10 6 0 11 -9 11 -21 0 -12 4
-17 11 -13 8 4 8 0 0 -15 -11 -19 -8 -25 11 -22 4 0 10 -8 13 -19 4 -11 11
-20 16 -20 5 0 9 -6 9 -14 0 -8 6 -17 13 -19 9 -4 8 -6 -2 -6 -10 -1 -7 -7 8
-20 12 -11 22 -22 21 -26 -2 -10 43 -85 52 -85 4 0 8 -5 8 -10 0 -6 9 -20 20
-32 11 -12 20 -28 20 -35 0 -7 5 -13 10 -13 6 0 10 -7 10 -15 0 -8 5 -15 10
-15 6 0 10 -7 10 -15 0 -8 4 -15 9 -15 5 0 17 -17 26 -37 10 -21 30 -48 46
-61 16 -13 27 -28 24 -33 -4 -5 1 -9 9 -9 12 0 29 -30 29 -50 0 -12 38 -31 49
-24 7 4 8 3 4 -5 -5 -7 11 -30 39 -59 26 -26 54 -57 62 -69 8 -13 20 -20 26
-16 6 4 8 0 4 -10 -4 -11 1 -18 14 -22 12 -4 18 -13 15 -21 -3 -7 -1 -16 5
-19 5 -4 6 -11 3 -17 -4 -6 -2 -8 3 -5 6 4 25 4 43 1 22 -5 28 -9 18 -15 -10
-7 -9 -9 5 -9 10 0 16 -4 13 -8 -3 -5 6 -15 19 -22 13 -7 22 -17 20 -21 -3 -4
4 -10 15 -14 11 -3 29 -18 40 -32 11 -14 20 -22 20 -17 0 4 7 -1 15 -12 8 -10
15 -16 15 -12 0 4 14 -6 30 -24 16 -17 30 -28 30 -24 0 3 14 -7 31 -24 18 -16
38 -30 46 -30 8 0 11 -4 8 -10 -3 -5 1 -10 9 -10 9 0 16 -4 16 -10 0 -5 6 -10
13 -10 8 0 22 -9 32 -20 10 -11 20 -18 23 -16 2 3 10 0 17 -7 7 -7 23 -19 35
-27 12 -8 28 -20 35 -27 7 -7 15 -9 19 -6 3 4 6 1 6 -6 0 -7 5 -9 10 -6 6 3
10 1 10 -5 0 -7 7 -10 15 -6 10 3 17 -3 21 -20 4 -14 9 -23 12 -20 3 3 12 0
20 -7 13 -10 14 -9 8 1 -7 11 -4 11 15 0 13 -7 27 -17 31 -23 5 -7 8 -7 8 0 0
6 4 5 8 -2 4 -6 14 -13 22 -15 8 -2 21 -10 28 -18 12 -13 13 -13 6 0 -4 8 3 5
15 -7 12 -13 33 -23 46 -23 14 0 25 -4 25 -9 0 -9 47 -29 62 -27 4 1 13 -8 21
-18 8 -11 19 -16 25 -12 7 4 12 2 12 -4 0 -7 7 -10 15 -6 9 3 15 0 15 -9 0
-18 36 -39 45 -25 4 6 14 6 28 -2 55 -28 59 -30 52 -18 -14 22 33 -9 49 -32 9
-12 16 -17 16 -10 0 20 27 14 56 -13 28 -26 40 -32 30 -16 -3 5 1 11 9 15 8 3
15 1 15 -5 0 -6 5 -7 10 -4 6 3 22 -3 36 -14 16 -13 36 -19 55 -16 16 2 29 -1
29 -7 0 -6 6 -6 15 2 8 7 15 8 15 4 0 -5 9 -15 21 -22 17 -11 20 -11 14 0 -6
10 -5 11 6 0 17 -16 32 -16 23 1 -5 8 -2 8 9 -2 9 -7 17 -10 17 -6 0 4 7 2 15
-5 8 -6 19 -9 25 -5 6 4 17 2 24 -4 8 -7 18 -11 22 -10 27 5 64 -2 59 -11 -3
-5 1 -10 9 -10 8 0 18 5 22 11 3 6 9 7 13 3 3 -5 15 -16 25 -24 16 -12 18 -12
11 -1 -6 11 -3 13 13 9 12 -4 22 -1 22 4 0 6 6 6 15 -2 8 -6 19 -9 25 -5 5 3
10 1 10 -5 0 -8 6 -8 20 0 13 7 20 7 20 1 0 -6 7 -8 15 -5 8 4 15 2 15 -3 0
-5 14 -9 30 -8 17 0 30 2 30 5 0 3 9 6 19 6 11 0 17 -5 14 -10 -4 -5 1 -7 9
-3 9 3 21 0 27 -6 7 -7 11 -7 11 -1 0 6 7 11 15 11 8 0 15 -5 15 -10 0 -5 7
-4 15 3 8 7 15 8 15 3 0 -5 9 -9 20 -9 11 0 20 4 20 9 0 5 7 4 15 -3 12 -10
15 -10 15 1 0 12 2 12 9 0 6 -9 11 -10 15 -2 4 6 13 8 19 4 18 -11 47 -11 47
0 0 5 7 4 15 -3 12 -10 15 -10 15 1 0 9 3 10 8 4 8 -12 32 -13 50 -2 7 5 12 3
12 -4 0 -8 4 -8 15 1 9 7 15 8 15 2 0 -11 18 -11 35 0 6 3 40 5 77 4 36 -1 65
2 62 5 -2 4 5 9 16 12 11 3 20 2 20 -2 0 -9 28 -7 52 3 9 4 31 8 50 10 18 1
38 5 45 9 6 4 15 2 18 -3 5 -8 13 -6 25 5 12 11 20 13 25 6 4 -7 12 -8 23 -2
10 5 30 7 45 4 15 -3 33 0 41 6 11 9 15 9 19 -1 4 -11 6 -10 6 0 1 7 6 10 11
7 6 -3 10 -1 10 5 0 6 4 9 9 6 5 -4 11 -1 13 4 2 6 13 12 26 13 12 0 22 4 22
8 0 4 12 5 28 3 15 -3 32 -5 38 -6 6 -1 11 -7 11 -14 0 -7 -4 -11 -9 -8 -4 3
-8 -2 -8 -10 0 -18 25 -22 35 -6 4 6 11 8 16 5 5 -4 9 -2 9 3 0 5 9 12 20 15
11 3 20 0 20 -5 0 -6 8 -4 17 3 15 12 16 12 8 -1 -4 -8 4 -2 18 13 15 16 32
25 39 21 7 -4 8 -3 4 4 -4 7 -3 12 3 12 5 0 13 -5 16 -10 4 -7 13 -7 26 0 14
8 19 7 19 -2 0 -9 3 -9 9 2 11 16 4 33 -9 25 -4 -3 -11 1 -13 7 -4 10 -7 10
-15 0 -9 -13 -42 -6 -42 9 0 12 59 41 70 34 6 -3 10 -1 10 5 0 6 5 8 10 5 6
-3 10 -1 10 5 0 7 7 10 15 6 8 -3 15 -1 15 4 0 6 13 8 30 5 18 -3 30 -1 30 5
0 6 5 8 12 4 6 -4 8 -3 4 4 -7 12 10 25 37 27 10 1 23 8 28 16 5 8 9 10 9 4 0
-5 7 -1 15 9 8 11 15 15 15 8 0 -6 7 -9 15 -6 8 4 12 10 9 15 -3 5 3 9 14 9
11 0 36 11 56 25 20 14 46 25 56 25 11 0 20 4 20 10 0 5 3 9 8 9 22 -4 53 2
48 9 -2 4 4 9 15 9 15 1 18 -3 15 -24 -5 -25 -31 -52 -53 -53 -6 0 -14 -6 -16
-12 -4 -10 -8 -9 -16 2 -9 12 -11 12 -17 -3 -3 -9 -10 -14 -15 -11 -5 3 -9 1
-9 -4 0 -16 27 -21 40 -9 10 9 11 9 5 -3 -6 -11 -3 -10 12 3 11 9 23 14 26 10
4 -3 7 -1 7 5 0 7 6 12 13 12 21 1 59 39 51 51 -4 8 -3 9 4 5 7 -4 12 -2 12 4
0 6 5 8 10 5 9 -6 14 8 11 28 -1 5 2 6 6 4 5 -3 15 2 23 11 13 14 12 15 -3 9
-15 -5 -17 -2 -14 20 2 18 10 27 26 30 12 2 20 0 18 -4 -3 -5 1 -14 9 -21 8
-7 14 -10 14 -6 0 3 8 0 18 -7 9 -7 13 -9 9 -4 -4 5 3 14 15 21 l23 12 -27 12
c-15 7 -29 19 -32 27 -3 8 -1 11 4 8 6 -3 10 -1 10 4 0 6 7 11 16 11 8 0 13
-4 10 -9 -8 -12 35 -2 53 13 12 9 13 8 6 -4 -8 -13 -7 -13 8 -1 10 8 17 9 17
3 0 -16 61 17 93 50 15 16 32 26 37 23 6 -4 10 -1 10 5 0 6 3 9 8 7 13 -8 54
13 50 25 -5 15 15 38 32 38 6 0 8 5 5 10 -3 6 -1 10 5 10 6 0 8 5 5 10 -3 6 3
10 13 10 12 0 22 9 25 21 3 12 10 18 16 15 5 -4 15 2 20 13 6 10 22 22 36 25
17 4 25 13 25 27 0 12 8 23 20 26 11 3 20 9 20 14 0 6 10 14 23 19 12 5 16 9
8 9 -15 1 25 41 41 41 5 0 6 5 3 10 -6 9 16 14 31 8 3 -2 13 10 21 26 11 21
12 30 3 36 -8 5 -6 10 7 15 10 5 20 9 23 9 3 1 23 20 43 43 21 23 44 40 51 37
7 -3 19 3 27 13 12 16 12 17 -1 8 -9 -5 -8 -2 3 7 10 10 16 22 12 28 -3 5 -2
10 4 10 6 0 8 7 5 15 -4 8 -1 15 6 15 6 0 8 5 5 10 -3 6 -1 10 5 10 20 0 38
26 43 60 5 28 38 79 59 88 4 2 4 10 1 18 -4 12 5 18 27 16 3 0 10 10 17 24 6
14 7 21 1 18 -6 -4 -2 6 8 22 46 71 64 96 64 88 0 -5 5 -2 10 6 7 11 10 11 10
2 0 -10 3 -10 14 0 8 7 12 16 9 21 -2 4 0 7 6 7 6 0 8 7 5 15 -4 8 1 17 10 21
9 3 13 10 10 15 -3 5 -1 9 5 9 10 0 10 18 -1 35 -4 6 -3 17 3 25 5 8 9 11 9 6
0 -5 9 -1 20 9 13 12 17 23 11 34 -5 9 -6 22 -4 29 3 6 0 12 -5 12 -6 0 -9 15
-6 36 3 22 1 33 -6 29 -12 -7 -4 17 21 62 10 17 14 33 8 35 -5 2 0 9 12 16 15
10 19 10 14 1 -5 -7 -4 -10 3 -6 5 4 17 4 26 1 14 -5 14 -9 4 -22 -8 -10 -9
-13 -1 -9 6 4 13 1 16 -5 3 -10 8 -10 17 -2 8 8 8 14 1 18 -5 4 -7 14 -4 23 4
11 3 14 -5 9 -8 -5 -10 -2 -5 9 4 11 -4 25 -23 42 -16 13 -23 22 -16 18 7 -4
12 0 12 10 0 9 5 13 10 10 11 -7 14 5 11 46 -1 30 27 48 41 27 6 -11 8 -10 8
0 0 7 5 10 10 7 17 -11 40 15 40 44 0 15 6 33 13 40 10 11 10 13 0 7 -14 -8
-18 6 -6 18 10 10 13 37 3 31 -5 -3 -10 1 -13 7 -3 7 -4 -6 -2 -30 1 -27 -2
-41 -9 -39 -6 3 -10 10 -9 16 2 6 -2 11 -7 11 -6 0 -10 7 -10 15 0 8 -6 15
-12 15 -8 0 -5 7 6 15 11 8 16 15 11 15 -5 0 0 7 11 16 10 8 14 13 7 10 -17
-9 -21 15 -7 43 7 14 11 28 8 33 -3 4 0 8 6 8 6 0 9 4 6 9 -3 5 1 14 10 21 8
7 13 19 10 26 -3 7 -1 16 5 20 6 3 6 10 1 17 -12 15 -11 47 0 47 5 0 6 5 3 10
-4 6 -1 18 7 27 11 14 11 16 -1 8 -9 -5 -5 8 9 30 13 21 18 35 12 31 -7 -4
-12 -2 -12 3 0 6 5 11 10 11 14 0 13 33 -2 48 -7 7 -8 12 -2 12 5 0 10 21 9
46 0 26 5 48 11 51 12 4 14 63 3 63 -3 0 -6 7 -6 15 0 8 4 12 9 9 11 -7 10 3
-3 28 -8 15 -8 19 0 14 6 -4 12 -1 12 6 5 58 4 107 -3 126 -4 13 -4 22 2 22 6
0 10 5 10 11 0 5 -4 8 -8 5 -5 -3 -5 17 -2 44 7 54 4 199 -4 208 -3 3 2 11 12
18 10 8 12 13 5 14 -7 0 -13 9 -13 20 0 11 -5 20 -11 20 -8 0 -8 5 1 15 10 12
10 15 -1 15 -9 0 -10 3 -4 8 17 12 17 50 -1 77 -10 15 -12 25 -5 25 6 0 11 5
11 11 0 5 -6 7 -12 4 -7 -4 -4 1 6 9 11 9 14 16 8 16 -7 0 -12 7 -12 15 0 8
-6 15 -12 15 -10 0 -10 2 0 9 14 8 14 79 -1 88 -4 2 -3 11 4 19 9 11 9 14 0
14 -7 0 -9 5 -6 10 3 6 1 10 -5 10 -6 0 -8 5 -5 10 3 6 1 10 -5 10 -6 0 -8 5
-5 10 3 6 1 10 -5 10 -6 0 -8 5 -5 10 3 6 0 10 -7 10 -8 0 -9 3 -3 8 12 8 13
27 3 38 -5 4 -8 18 -8 31 0 12 -4 23 -8 23 -5 0 -10 24 -11 53 -1 28 -6 54
-11 55 -6 2 -10 12 -10 23 0 10 -4 19 -10 19 -5 0 -9 3 -9 8 4 26 -3 62 -11
57 -6 -3 -7 1 -4 10 4 9 -1 21 -11 29 -14 10 -15 15 -5 21 9 5 9 9 1 15 -7 4
-13 17 -14 28 -1 12 -5 22 -9 22 -4 0 -8 14 -8 30 0 17 -3 30 -7 30 -5 0 -13
11 -20 25 -6 14 -7 22 -2 19 5 -3 4 6 -3 20 -6 14 -14 26 -17 26 -4 0 -8 14
-9 32 -2 18 -6 35 -10 38 -7 5 -13 24 -15 52 -1 9 -4 15 -8 13 -11 -7 -48 39
-52 65 -2 13 -9 26 -15 28 -7 2 -10 8 -6 13 3 5 0 9 -5 9 -6 0 -11 9 -11 20 0
11 -4 20 -10 20 -5 0 -10 5 -10 11 0 6 -7 17 -16 26 -8 9 -13 22 -10 29 3 8 1
14 -5 14 -6 0 -8 4 -4 9 3 6 -4 15 -15 21 -11 6 -22 21 -26 35 -3 13 -14 31
-25 41 -10 9 -16 21 -13 25 3 5 0 9 -6 9 -6 0 -13 8 -17 18 -3 9 -15 27 -26
40 -12 12 -15 22 -9 22 9 0 9 5 0 20 -7 11 -18 20 -24 20 -20 0 -35 25 -22 38
8 8 7 13 -8 18 -30 11 -54 35 -54 55 0 10 -5 21 -12 25 -7 5 -8 2 -3 -7 4 -8
-8 2 -26 21 -19 19 -33 37 -32 38 1 2 -18 25 -43 50 -24 26 -44 51 -44 55 0
12 -27 37 -32 31 -3 -2 -13 14 -23 36 -14 30 -21 37 -31 29 -9 -7 -14 -5 -19
10 -3 12 -13 21 -22 21 -10 0 -14 6 -11 18 6 20 -12 40 -30 34 -6 -2 -12 1
-12 7 0 6 -6 11 -14 11 -8 0 -27 15 -44 34 -17 19 -33 32 -36 29 -3 -4 -6 0
-6 7 0 7 -3 11 -6 7 -4 -3 -21 7 -38 24 -112 107 -148 139 -157 139 -6 0 -7 5
-4 11 4 6 1 9 -6 8 -14 -3 -73 25 -96 45 -32 28 -43 36 -43 31 0 -6 -14 5 -47
35 -9 8 -19 14 -22 14 -14 -3 -51 16 -51 26 0 6 -4 8 -10 5 -5 -3 -10 -1 -10
4 0 6 -9 11 -20 11 -11 0 -20 5 -20 11 0 5 -5 7 -10 4 -6 -3 -13 1 -16 9 -3 9
-15 16 -25 16 -10 0 -19 5 -19 11 0 5 -4 7 -10 4 -5 -3 -10 -1 -10 5 0 6 -4 8
-10 5 -5 -3 -10 -1 -10 5 0 6 -4 9 -10 5 -5 -3 -17 6 -26 20 -11 18 -19 22
-24 15 -6 -9 -9 -9 -14 -1 -4 6 -12 9 -17 6 -5 -4 -9 -1 -9 5 0 7 -7 9 -15 6
-9 -3 -18 1 -21 9 -4 8 -10 12 -15 9 -5 -3 -9 0 -9 6 0 6 -4 8 -10 5 -5 -3
-10 0 -10 7 0 10 -2 10 -9 -1 -7 -10 -9 -11 -13 -1 -2 7 -15 15 -29 17 -13 2
-26 8 -27 13 -2 6 -8 8 -13 4 -5 -3 -9 0 -9 6 0 7 -7 10 -15 6 -8 -3 -15 -1
-15 5 0 6 -7 9 -15 5 -8 -3 -15 -1 -15 5 0 6 -4 8 -8 5 -5 -3 -27 6 -50 19
-28 16 -42 20 -46 12 -3 -8 -5 -8 -5 1 -1 7 -5 10 -11 7 -5 -3 -10 -2 -10 4 0
6 -7 8 -15 5 -8 -4 -15 -1 -15 5 0 6 -7 8 -17 4 -12 -5 -14 -3 -8 8 6 11 5 11
-4 3 -10 -9 -19 -9 -39 2 -14 7 -29 11 -34 8 -4 -3 -8 -1 -8 5 0 6 -7 7 -17 4
-10 -4 -14 -2 -10 4 4 6 -3 9 -18 7 -14 -1 -25 2 -25 6 0 5 -9 7 -20 5 -11 -2
-20 2 -20 8 0 7 -4 6 -10 -3 -6 -9 -10 -10 -10 -3 0 6 -9 10 -20 8 -11 -2 -20
1 -20 7 0 6 -11 8 -25 6 -13 -3 -22 -1 -19 3 5 9 -4 11 -46 11 -14 0 -28 5
-32 12 -5 7 -8 7 -8 -3 0 -11 -3 -11 -15 -1 -11 9 -15 9 -15 1 0 -9 -6 -9 -22
0 -23 13 -35 15 -115 20 -24 1 -43 6 -43 10 0 6 -22 5 -40 -1 -3 -1 -9 -1 -15
0 -45 9 -89 13 -142 12 -41 -1 -63 2 -63 9 0 7 -6 7 -17 -2 -14 -12 -15 -12
-9 -1 7 11 4 12 -13 3 -16 -9 -21 -9 -21 0 0 8 -4 8 -15 -1 -12 -10 -15 -10
-15 0 0 9 -4 9 -17 -1 -15 -12 -16 -12 -8 1 8 13 7 13 -8 1 -13 -10 -17 -10
-17 -1 0 9 -4 9 -17 -1 -11 -10 -14 -10 -9 -1 8 14 6 15 -14 3z"/>
<path d="M14630 3546 c0 -26 -5 -46 -12 -49 -10 -4 -10 -6 0 -6 7 -1 10 -6 7
-11 -4 -6 -8 -22 -11 -35 -5 -31 21 -35 29 -5 3 11 1 18 -4 14 -5 -3 -9 -1 -9
5 0 5 4 12 8 15 13 8 15 116 2 116 -5 0 -10 -20 -10 -44z"/>
<path d="M6669 3483 c0 -5 -2 -21 -4 -38 -2 -16 -2 -24 1 -17 3 6 9 10 12 8 4
-2 7 9 7 25 1 16 -3 29 -7 29 -4 0 -8 -3 -9 -7z"/>
<path d="M6597 3129 c4 -12 0 -25 -8 -30 -11 -7 -11 -9 -1 -9 7 0 10 -4 7 -10
-3 -5 -1 -10 5 -10 6 0 8 -5 4 -12 -6 -10 -3 -9 8 0 10 8 14 20 11 29 -4 11
-2 14 5 9 8 -5 10 -1 5 11 -14 41 -46 60 -36 22z"/>
<path d="M14541 3101 c-8 -5 -9 -11 -3 -15 5 -3 12 1 16 9 6 17 6 18 -13 6z"/>
<path d="M14370 2627 c0 -8 7 -14 15 -14 11 0 12 4 4 14 -6 7 -13 13 -15 13
-2 0 -4 -6 -4 -13z"/>
<path d="M5984 1895 c-12 -9 -14 -14 -6 -15 7 0 10 -6 7 -12 -4 -7 1 -4 9 6
14 18 21 36 13 36 -2 0 -12 -7 -23 -15z"/>
<path d="M5200 1236 c0 -7 -7 -21 -16 -32 -8 -10 -13 -12 -9 -4 4 8 -1 6 -10
-5 -14 -17 -14 -20 -1 -23 16 -4 58 33 49 42 -4 3 2 6 11 6 10 0 16 5 14 12
-5 15 -38 19 -38 4z"/>
<path d="M12726 976 c3 -9 11 -16 16 -16 13 0 5 23 -10 28 -7 2 -10 -2 -6 -12z"/>
<path d="M12587 933 c6 -15 13 -16 31 -4 10 6 7 10 -11 13 -18 4 -24 1 -20 -9z"/>
<path d="M4155 759 c-4 -6 -5 -12 -2 -15 2 -3 7 2 10 11 7 17 1 20 -8 4z"/>
<path d="M11924 752 c6 -9 1 -11 -18 -8 -14 3 -29 -1 -32 -7 -4 -7 -4 -9 1 -5
4 4 14 0 21 -10 9 -11 13 -13 14 -4 0 7 4 11 8 8 4 -2 14 -1 20 3 10 6 9 11
-4 22 -13 10 -15 10 -10 1z"/>
<path d="M2870 740 c0 -5 5 -10 10 -10 6 0 10 5 10 10 0 6 -4 10 -10 10 -5 0
-10 -4 -10 -10z"/>
</g>
</svg>
